<?xml version="1.0" standalone="no"?>
<!DOCTYPE svg PUBLIC "-//W3C//DTD SVG 20010904//EN"
 "http://www.w3.org/TR/2001/REC-SVG-20010904/DTD/svg10.dtd">
<svg version="1.0" xmlns="http://www.w3.org/2000/svg"
 width="700.000000pt" height="700.000000pt" viewBox="0 0 700.000000 700.000000"
 preserveAspectRatio="xMidYMid meet">
<metadata>
Created by potrace 1.11, written by Peter Selinger 2001-2013
</metadata>
<g transform="translate(0.000000,700.000000) scale(0.100000,-0.100000)"
fill="#000000" stroke="none">
<path d="M2760 6577 c-3 -3 -39 -7 -80 -10 -99 -7 -254 -29 -300 -42 -8 -2
-31 -7 -50 -10 -66 -11 -225 -54 -325 -88 -309 -105 -604 -264 -867 -467 -116
-90 -334 -296 -427 -405 -78 -89 -207 -268 -273 -375 -90 -147 -219 -404 -234
-469 -4 -14 -10 -30 -14 -36 -7 -9 -50 -140 -83 -250 -14 -48 -33 -125 -42
-173 -2 -13 -6 -31 -9 -40 -3 -9 -7 -35 -11 -57 -3 -22 -10 -69 -16 -105 -24
-153 -33 -486 -17 -670 47 -539 248 -1062 573 -1496 112 -149 137 -178 284
-324 326 -325 680 -547 1115 -699 81 -29 273 -83 336 -95 14 -3 36 -7 50 -10
28 -6 215 -35 270 -41 19 -3 103 -7 185 -11 139 -5 152 -4 182 15 65 41 90
120 58 182 -10 19 -23 37 -29 41 -6 4 0 8 14 8 l25 0 -1 1333 c0 732 1 1337 3
1342 2 7 236 9 681 8 372 0 679 -2 682 -2 3 -1 7 -26 8 -56 1 -30 8 -68 17
-84 33 -65 128 -90 192 -51 47 28 67 64 69 129 1 31 3 58 3 61 1 3 236 5 523
5 288 0 547 1 576 3 l54 4 -7 132 c-3 72 -8 145 -10 161 -2 17 -7 57 -10 90
-10 91 -50 287 -86 412 -70 252 -176 494 -318 727 -243 401 -586 744 -987 987
-377 229 -769 362 -1229 415 -57 7 -470 16 -475 11z m-494 -370 c-10 -7 -62
-46 -115 -88 -476 -378 -817 -1060 -947 -1894 -2 -16 -6 -41 -9 -55 -2 -14 -6
-47 -9 -75 -14 -138 -18 -170 -23 -175 -8 -8 -858 -6 -864 2 -6 10 21 191 46
300 113 505 393 996 770 1349 98 91 107 98 190 164 248 194 550 353 836 441
46 14 95 29 109 34 34 12 38 11 16 -3z m1396 -6 c13 -6 59 -21 103 -34 258
-79 553 -235 790 -416 188 -144 386 -345 521 -531 145 -198 251 -387 336 -600
39 -96 101 -287 113 -349 2 -9 12 -62 24 -118 11 -56 23 -126 26 -155 3 -29 8
-60 10 -68 4 -13 -48 -15 -432 -15 l-438 0 -6 47 c-4 25 -10 79 -14 120 -3 40
-8 80 -10 88 -2 8 -7 35 -10 60 -6 44 -39 225 -48 265 -54 235 -82 330 -161
540 -179 480 -478 906 -790 1126 -64 45 -70 63 -14 40z m-867 -1186 l0 -1100
-670 0 -670 0 1 40 c1 49 14 187 19 194 1 4 6 33 10 66 3 33 13 92 22 130 8
39 17 82 19 97 5 26 40 168 69 273 7 28 30 97 50 155 183 520 466 918 795
1117 100 60 211 107 285 120 17 3 32 7 35 9 2 3 11 3 20 2 13 -3 15 -118 15
-1103z m425 1075 c131 -44 263 -119 375 -214 321 -271 572 -714 720 -1266 4
-14 43 -189 50 -220 20 -98 53 -315 60 -405 l6 -70 -678 0 -678 0 0 1103 0
1103 40 -5 c22 -3 69 -15 105 -26z m-2070 -2460 c1 -3 3 -68 5 -145 4 -155 15
-346 20 -355 2 -3 6 -43 10 -90 3 -47 10 -103 15 -125 5 -22 11 -65 15 -95 16
-136 121 -544 175 -680 10 -25 28 -72 41 -105 12 -33 40 -98 62 -145 21 -47
42 -94 47 -105 4 -11 31 -60 59 -109 28 -49 51 -91 51 -93 0 -2 29 -47 64
-101 65 -99 141 -197 202 -264 19 -20 34 -39 34 -42 0 -12 -228 96 -334 159
-116 69 -257 163 -321 216 -341 283 -576 575 -748 932 -72 148 -157 371 -172
451 -2 11 -4 21 -5 21 -6 0 -59 270 -66 333 -3 37 -8 75 -10 86 -6 34 -15 246
-11 254 6 8 867 10 867 2z m1635 1 c10 -1 15 -2624 5 -2635 -16 -15 -286 83
-331 121 -8 7 -19 13 -23 13 -4 0 -42 26 -84 57 -409 301 -714 880 -851 1613
-18 97 -38 238 -46 330 -3 36 -8 90 -11 120 -6 62 -13 372 -9 380 3 4 1314 5
1350 1z"/>
<path d="M3640 2100 l0 -839 -110 -388 c-119 -415 -146 -511 -161 -557 -5 -16
-9 -31 -9 -32 0 -2 819 -4 1821 -4 1729 0 1820 1 1815 18 -12 38 -98 338 -101
352 -2 8 -15 56 -30 105 -15 50 -29 99 -32 110 -3 11 -16 56 -28 100 -13 44
-38 129 -54 189 l-31 109 0 838 0 839 -1540 0 -1540 0 0 -840z m2800 -140 l0
-700 -1260 0 -1260 0 0 700 0 700 1260 0 1260 0 0 -700z m73 -997 c13 -43 55
-190 61 -213 4 -14 11 -38 16 -55 5 -16 15 -54 23 -82 l15 -53 -1448 0 -1448
0 13 48 c10 37 78 274 101 355 5 16 77 17 1334 17 1256 0 1328 -1 1333 -17z"/>
</g>
</svg>
