<?xml version="1.0" standalone="no"?>
<!DOCTYPE svg PUBLIC "-//W3C//DTD SVG 20010904//EN"
 "http://www.w3.org/TR/2001/REC-SVG-20010904/DTD/svg10.dtd">
<svg version="1.0" xmlns="http://www.w3.org/2000/svg"
 width="700.000000pt" height="700.000000pt" viewBox="0 0 700.000000 700.000000"
 preserveAspectRatio="xMidYMid meet">
<metadata>
Created by potrace 1.11, written by Peter Selinger 2001-2013
</metadata>
<g transform="translate(0.000000,700.000000) scale(0.100000,-0.100000)"
fill="#000000" stroke="none">
<path d="M2760 6997 c-3 -2 -44 -7 -91 -11 -48 -3 -93 -8 -100 -10 -8 -3 -38
-7 -68 -11 -30 -3 -89 -13 -130 -21 -42 -9 -83 -17 -91 -19 -109 -22 -337 -96
-470 -152 -364 -155 -660 -353 -936 -628 -146 -146 -183 -188 -288 -330 -144
-194 -257 -388 -358 -620 -89 -205 -170 -507 -204 -760 -3 -27 -8 -61 -10 -75
-3 -14 -6 -122 -8 -240 -3 -192 2 -308 19 -430 3 -22 8 -59 11 -82 3 -24 10
-65 15 -93 6 -27 12 -61 15 -75 3 -14 18 -75 34 -135 130 -494 388 -940 755
-1311 427 -430 951 -709 1550 -825 64 -12 87 -16 160 -24 32 -4 68 -9 80 -11
11 -2 88 -7 170 -10 171 -6 200 2 243 66 29 43 26 106 -7 151 -12 16 -18 29
-14 28 40 -7 38 -69 37 1334 0 732 1 1337 3 1342 2 7 235 10 676 9 369 -1 677
-2 683 -3 5 0 11 -26 12 -56 2 -96 54 -155 137 -155 84 0 138 59 139 151 1 33
6 60 11 60 6 1 246 3 535 4 289 1 545 3 568 4 l44 1 -7 128 c-8 162 -16 240
-35 347 -5 28 -11 64 -13 80 -28 193 -146 534 -269 780 -161 320 -429 659
-708 899 -158 135 -400 296 -587 390 -152 76 -370 164 -473 191 -176 47 -309
76 -405 89 -66 10 -131 20 -145 22 -32 7 -474 16 -480 11z m-481 -361 c-2 -2
-42 -32 -89 -67 -316 -233 -599 -638 -776 -1114 -56 -149 -61 -162 -73 -205
-5 -19 -19 -66 -30 -105 -12 -38 -35 -133 -52 -210 -30 -140 -34 -163 -43
-220 -11 -68 -17 -101 -21 -125 -2 -14 -7 -55 -10 -91 -4 -37 -9 -88 -13 -115
l-7 -49 -435 0 c-271 1 -434 5 -434 10 1 6 5 34 8 63 30 256 118 552 237 798
327 676 907 1175 1629 1400 119 36 115 35 109 30z m1476 -46 c397 -129 748
-341 1045 -632 70 -68 197 -210 233 -259 17 -24 37 -50 44 -57 45 -47 199
-302 264 -439 118 -249 214 -573 235 -798 4 -33 8 -62 9 -65 4 -7 -862 -7
-869 0 -5 5 -7 27 -21 165 -9 80 -45 304 -60 370 -8 33 -16 71 -19 85 -42 245
-229 731 -365 953 -23 37 -41 69 -41 71 0 4 -76 121 -92 141 -4 6 -35 46 -69
90 -111 143 -305 327 -435 412 -24 16 -20 14 141 -37z m-960 -1152 l0 -1103
-673 0 -673 0 6 70 c3 38 8 81 10 95 2 14 9 61 15 106 6 44 13 91 15 105 78
404 181 714 334 1002 44 83 164 274 180 287 4 3 14 17 23 31 18 28 89 109 158
178 146 147 307 249 479 302 36 11 71 22 76 24 6 2 19 4 30 4 20 1 20 -5 20
-1101z m425 1072 c455 -149 857 -668 1067 -1380 13 -47 26 -92 28 -100 2 -8 8
-33 13 -55 20 -75 58 -261 66 -325 3 -19 9 -66 15 -105 5 -38 12 -102 16 -140
l6 -70 -678 0 -678 0 0 1104 0 1103 40 -6 c22 -3 69 -15 105 -26z m-2069
-2465 c0 -5 2 -80 4 -165 2 -85 7 -180 9 -210 3 -30 8 -86 11 -125 18 -231 77
-538 151 -788 34 -113 117 -345 151 -417 53 -114 113 -233 146 -286 20 -34 37
-64 37 -67 0 -13 175 -260 215 -303 43 -46 75 -84 75 -88 0 -11 -157 62 -289
134 -309 168 -610 426 -823 705 -37 50 -72 95 -78 102 -34 41 -123 190 -187
313 -90 171 -198 465 -227 620 -3 14 -10 50 -16 80 -12 58 -15 76 -25 155 -3
28 -8 61 -11 75 -2 14 -6 81 -9 150 l-6 125 435 0 c284 0 436 -3 437 -10z
m1634 6 c7 -1 10 -447 10 -1318 l0 -1318 -30 3 c-39 5 -157 44 -226 76 -154
70 -355 239 -496 416 -151 190 -302 478 -401 765 -45 130 -102 336 -117 425
-3 19 -10 51 -15 70 -5 19 -14 69 -19 110 -6 41 -13 84 -15 95 -4 20 -11 76
-21 175 -17 170 -27 492 -15 500 7 4 1312 5 1345 1z"/>
<path d="M3640 2520 l0 -840 -136 -477 c-75 -263 -139 -484 -141 -490 -4 -10
363 -13 1817 -13 1730 0 1821 1 1816 18 -3 9 -21 71 -40 137 -19 66 -67 233
-106 370 -39 138 -73 257 -75 265 -2 8 -15 53 -29 100 l-26 85 0 843 0 842
-1540 0 -1540 0 0 -840z m2800 -140 l0 -700 -1260 0 -1260 0 0 700 0 700 1260
0 1260 0 0 -700z m83 -1032 c9 -29 36 -123 61 -208 l44 -155 -724 -3 c-398 -1
-1050 -1 -1448 0 l-723 3 49 170 c26 94 53 187 59 208 l10 37 1328 0 1328 0
16 -52z"/>
</g>
</svg>
